<svg width="1400" height="1100" viewBox="0 0 1400 1100" xmlns="http://www.w3.org/2000/svg" font-family="Segoe UI, Arial, sans-serif">

  <rect width="1400" height="1100" fill="#f8f9fa"/>

  <!-- Title -->
  <text x="700" y="36" text-anchor="middle" font-size="20" font-weight="700" fill="#1a1a2e">LMS — Class Diagram (Phase 2) — Updated</text>
  <line x1="40" y1="48" x2="1360" y2="48" stroke="#cccccc" stroke-width="1"/>

  <!-- LAYER SIDE LABELS -->
  <rect x="16" y="58" width="14" height="220" rx="4" fill="#d6eaf8"/>
  <text x="23" y="170" text-anchor="middle" font-size="12" font-weight="700" fill="#1a5276" transform="rotate(-90 23 170)">MODEL</text>

  <rect x="16" y="288" width="14" height="210" rx="4" fill="#e8daef"/>
  <text x="23" y="393" text-anchor="middle" font-size="12" font-weight="700" fill="#4a235a" transform="rotate(-90 23 393)">INTERFACES</text>

  <rect x="16" y="508" width="14" height="210" rx="4" fill="#d5f5e3"/>
  <text x="23" y="613" text-anchor="middle" font-size="12" font-weight="700" fill="#145a32" transform="rotate(-90 23 613)">DAO</text>

  <rect x="16" y="728" width="14" height="220" rx="4" fill="#fdebd0"/>
  <text x="23" y="840" text-anchor="middle" font-size="12" font-weight="700" fill="#784212" transform="rotate(-90 23 840)">SERVLET</text>

  <rect x="16" y="958" width="14" height="128" rx="4" fill="#fef9e7"/>
  <text x="23" y="1022" text-anchor="middle" font-size="12" font-weight="700" fill="#7d6608" transform="rotate(-90 23 1022)">UTIL</text>

  <!-- ==================== MODEL CLASSES ==================== -->

  <!-- Student -->
  <rect x="40" y="58" width="160" height="155" rx="8" fill="#eaf4fb" stroke="#2980b9" stroke-width="1.5"/>
  <rect x="40" y="58" width="160" height="30" rx="8" fill="#2980b9"/>
  <rect x="40" y="75" width="160" height="13" fill="#2980b9"/>
  <text x="120" y="78" text-anchor="middle" font-size="12" font-weight="700" fill="#fff">Student</text>
  <line x1="40" y1="88" x2="200" y2="88" stroke="#aed6f1" stroke-width="0.8"/>
  <text x="50" y="102" font-size="10" fill="#1a5276">- studentId : int</text>
  <text x="50" y="116" font-size="10" fill="#1a5276">- name : String</text>
  <text x="50" y="130" font-size="10" fill="#1a5276">- email : String</text>
  <text x="50" y="144" font-size="10" fill="#1a5276">- passwordHash : String</text>
  <text x="50" y="158" font-size="10" fill="#1a5276">- registeredOn : Date</text>
  <line x1="40" y1="164" x2="200" y2="164" stroke="#aed6f1" stroke-width="0.8"/>
  <text x="50" y="177" font-size="10" fill="#2471a3">+ getters / setters</text>
  <text x="50" y="191" font-size="10" fill="#2471a3">+ toString()</text>

  <!-- Instructor -->
  <rect x="215" y="58" width="160" height="155" rx="8" fill="#eaf4fb" stroke="#2980b9" stroke-width="1.5"/>
  <rect x="215" y="58" width="160" height="30" rx="8" fill="#2980b9"/>
  <rect x="215" y="75" width="160" height="13" fill="#2980b9"/>
  <text x="295" y="78" text-anchor="middle" font-size="12" font-weight="700" fill="#fff">Instructor</text>
  <line x1="215" y1="88" x2="375" y2="88" stroke="#aed6f1" stroke-width="0.8"/>
  <text x="225" y="102" font-size="10" fill="#1a5276">- instructorId : int</text>
  <text x="225" y="116" font-size="10" fill="#1a5276">- name : String</text>
  <text x="225" y="130" font-size="10" fill="#1a5276">- email : String</text>
  <text x="225" y="144" font-size="10" fill="#1a5276">- passwordHash : String</text>
  <text x="225" y="158" font-size="10" fill="#1a5276">- bio : String</text>
  <line x1="215" y1="164" x2="375" y2="164" stroke="#aed6f1" stroke-width="0.8"/>
  <text x="225" y="177" font-size="10" fill="#2471a3">+ getters / setters</text>
  <text x="225" y="191" font-size="10" fill="#2471a3">+ toString()</text>

  <!-- Admin -->
  <rect x="390" y="58" width="155" height="140" rx="8" fill="#eaf4fb" stroke="#2980b9" stroke-width="1.5"/>
  <rect x="390" y="58" width="155" height="30" rx="8" fill="#2980b9"/>
  <rect x="390" y="75" width="155" height="13" fill="#2980b9"/>
  <text x="467" y="78" text-anchor="middle" font-size="12" font-weight="700" fill="#fff">Admin</text>
  <line x1="390" y1="88" x2="545" y2="88" stroke="#aed6f1" stroke-width="0.8"/>
  <text x="400" y="102" font-size="10" fill="#1a5276">- adminId : int</text>
  <text x="400" y="116" font-size="10" fill="#1a5276">- name : String</text>
  <text x="400" y="130" font-size="10" fill="#1a5276">- email : String</text>
  <text x="400" y="144" font-size="10" fill="#1a5276">- passwordHash : String</text>
  <line x1="390" y1="150" x2="545" y2="150" stroke="#aed6f1" stroke-width="0.8"/>
  <text x="400" y="163" font-size="10" fill="#2471a3">+ getters / setters</text>
  <text x="400" y="177" font-size="10" fill="#2471a3">+ toString()</text>

  <!-- Course -->
  <rect x="560" y="58" width="165" height="155" rx="8" fill="#eaf4fb" stroke="#2980b9" stroke-width="1.5"/>
  <rect x="560" y="58" width="165" height="30" rx="8" fill="#2980b9"/>
  <rect x="560" y="75" width="165" height="13" fill="#2980b9"/>
  <text x="642" y="78" text-anchor="middle" font-size="12" font-weight="700" fill="#fff">Course</text>
  <line x1="560" y1="88" x2="725" y2="88" stroke="#aed6f1" stroke-width="0.8"/>
  <text x="570" y="102" font-size="10" fill="#1a5276">- courseId : int</text>
  <text x="570" y="116" font-size="10" fill="#1a5276">- instructorId : int</text>
  <text x="570" y="130" font-size="10" fill="#1a5276">- title : String</text>
  <text x="570" y="144" font-size="10" fill="#1a5276">- description : String</text>
  <text x="570" y="158" font-size="10" fill="#1a5276">- createdOn : Date</text>
  <line x1="560" y1="164" x2="725" y2="164" stroke="#aed6f1" stroke-width="0.8"/>
  <text x="570" y="177" font-size="10" fill="#2471a3">+ getters / setters</text>
  <text x="570" y="191" font-size="10" fill="#2471a3">+ toString()</text>

  <!-- Lesson -->
  <rect x="740" y="58" width="165" height="155" rx="8" fill="#eaf4fb" stroke="#2980b9" stroke-width="1.5"/>
  <rect x="740" y="58" width="165" height="30" rx="8" fill="#2980b9"/>
  <rect x="740" y="75" width="165" height="13" fill="#2980b9"/>
  <text x="822" y="78" text-anchor="middle" font-size="12" font-weight="700" fill="#fff">Lesson</text>
  <line x1="740" y1="88" x2="905" y2="88" stroke="#aed6f1" stroke-width="0.8"/>
  <text x="750" y="102" font-size="10" fill="#1a5276">- lessonId : int</text>
  <text x="750" y="116" font-size="10" fill="#1a5276">- courseId : int</text>
  <text x="750" y="130" font-size="10" fill="#1a5276">- title : String</text>
  <text x="750" y="144" font-size="10" fill="#1a5276">- contentUrl : String</text>
  <text x="750" y="158" font-size="10" fill="#1a5276">- orderIndex : int</text>
  <line x1="740" y1="164" x2="905" y2="164" stroke="#aed6f1" stroke-width="0.8"/>
  <text x="750" y="177" font-size="10" fill="#2471a3">+ getters / setters</text>
  <text x="750" y="191" font-size="10" fill="#2471a3">+ toString()</text>

  <!-- Enrollment -->
  <rect x="920" y="58" width="165" height="140" rx="8" fill="#eaf4fb" stroke="#2980b9" stroke-width="1.5"/>
  <rect x="920" y="58" width="165" height="30" rx="8" fill="#2980b9"/>
  <rect x="920" y="75" width="165" height="13" fill="#2980b9"/>
  <text x="1002" y="78" text-anchor="middle" font-size="12" font-weight="700" fill="#fff">Enrollment</text>
  <line x1="920" y1="88" x2="1085" y2="88" stroke="#aed6f1" stroke-width="0.8"/>
  <text x="930" y="102" font-size="10" fill="#1a5276">- enrollmentId : int</text>
  <text x="930" y="116" font-size="10" fill="#1a5276">- studentId : int</text>
  <text x="930" y="130" font-size="10" fill="#1a5276">- courseId : int</text>
  <text x="930" y="144" font-size="10" fill="#1a5276">- enrolledOn : Date</text>
  <line x1="920" y1="150" x2="1085" y2="150" stroke="#aed6f1" stroke-width="0.8"/>
  <text x="930" y="163" font-size="10" fill="#2471a3">+ getters / setters</text>
  <text x="930" y="177" font-size="10" fill="#2471a3">+ toString()</text>

  <!-- Progress -->
  <rect x="1100" y="58" width="175" height="155" rx="8" fill="#eaf4fb" stroke="#2980b9" stroke-width="1.5"/>
  <rect x="1100" y="58" width="175" height="30" rx="8" fill="#2980b9"/>
  <rect x="1100" y="75" width="175" height="13" fill="#2980b9"/>
  <text x="1187" y="78" text-anchor="middle" font-size="12" font-weight="700" fill="#fff">Progress</text>
  <line x1="1100" y1="88" x2="1275" y2="88" stroke="#aed6f1" stroke-width="0.8"/>
  <text x="1110" y="102" font-size="10" fill="#1a5276">- progressId : int</text>
  <text x="1110" y="116" font-size="10" fill="#1a5276">- studentId : int</text>
  <text x="1110" y="130" font-size="10" fill="#1a5276">- lessonId : int</text>
  <text x="1110" y="144" font-size="10" fill="#1a5276">- isCompleted : boolean</text>
  <text x="1110" y="158" font-size="10" fill="#1a5276">- completedOn : Date</text>
  <line x1="1100" y1="164" x2="1275" y2="164" stroke="#aed6f1" stroke-width="0.8"/>
  <text x="1110" y="177" font-size="10" fill="#2471a3">+ getters / setters</text>
  <text x="1110" y="191" font-size="10" fill="#2471a3">+ toString()</text>

  <!-- ==================== INTERFACE LAYER ==================== -->
  <!-- IStudentDAO -->
  <rect x="40" y="288" width="155" height="95" rx="8" fill="#f5eef8" stroke="#7d3c98" stroke-width="1.5"/>
  <rect x="40" y="288" width="155" height="28" rx="8" fill="#7d3c98"/>
  <rect x="40" y="304" width="155" height="12" fill="#7d3c98"/>
  <text x="117" y="305" text-anchor="middle" font-size="11" font-weight="700" fill="#fff">«interface»</text>
  <text x="117" y="318" text-anchor="middle" font-size="11" font-weight="700" fill="#e8daef">IStudentDAO</text>
  <line x1="40" y1="316" x2="195" y2="316" stroke="#d2b4de" stroke-width="0.8"/>
  <text x="50" y="330" font-size="10" fill="#4a235a">+ registerStudent(Student)</text>
  <text x="50" y="344" font-size="10" fill="#4a235a">+ getStudentByEmail(String)</text>
  <text x="50" y="358" font-size="10" fill="#4a235a">+ getStudentById(int)</text>
  <text x="50" y="372" font-size="10" fill="#4a235a">+ updateStudent(Student)</text>

  <!-- IInstructorDAO -->
  <rect x="210" y="288" width="165" height="95" rx="8" fill="#f5eef8" stroke="#7d3c98" stroke-width="1.5"/>
  <rect x="210" y="288" width="165" height="28" rx="8" fill="#7d3c98"/>
  <rect x="210" y="304" width="165" height="12" fill="#7d3c98"/>
  <text x="292" y="305" text-anchor="middle" font-size="11" font-weight="700" fill="#fff">«interface»</text>
  <text x="292" y="318" text-anchor="middle" font-size="11" font-weight="700" fill="#e8daef">IInstructorDAO</text>
  <line x1="210" y1="316" x2="375" y2="316" stroke="#d2b4de" stroke-width="0.8"/>
  <text x="220" y="330" font-size="10" fill="#4a235a">+ registerInstructor(Instructor)</text>
  <text x="220" y="344" font-size="10" fill="#4a235a">+ getInstructorByEmail(String)</text>
  <text x="220" y="358" font-size="10" fill="#4a235a">+ getInstructorById(int)</text>
  <text x="220" y="372" font-size="10" fill="#4a235a">+ updateInstructor(Instructor)</text>

  <!-- ICourseDAO -->
  <rect x="390" y="288" width="165" height="95" rx="8" fill="#f5eef8" stroke="#7d3c98" stroke-width="1.5"/>
  <rect x="390" y="288" width="165" height="28" rx="8" fill="#7d3c98"/>
  <rect x="390" y="304" width="165" height="12" fill="#7d3c98"/>
  <text x="472" y="305" text-anchor="middle" font-size="11" font-weight="700" fill="#fff">«interface»</text>
  <text x="472" y="318" text-anchor="middle" font-size="11" font-weight="700" fill="#e8daef">ICourseDAO</text>
  <line x1="390" y1="316" x2="555" y2="316" stroke="#d2b4de" stroke-width="0.8"/>
  <text x="400" y="330" font-size="10" fill="#4a235a">+ createCourse(Course)</text>
  <text x="400" y="344" font-size="10" fill="#4a235a">+ getAllCourses()</text>
  <text x="400" y="358" font-size="10" fill="#4a235a">+ getCourseById(int)</text>
  <text x="400" y="372" font-size="10" fill="#4a235a">+ getCoursesByInstructor(int)</text>

  <!-- ILessonDAO -->
  <rect x="570" y="288" width="155" height="82" rx="8" fill="#f5eef8" stroke="#7d3c98" stroke-width="1.5"/>
  <rect x="570" y="288" width="155" height="28" rx="8" fill="#7d3c98"/>
  <rect x="570" y="304" width="155" height="12" fill="#7d3c98"/>
  <text x="647" y="305" text-anchor="middle" font-size="11" font-weight="700" fill="#fff">«interface»</text>
  <text x="647" y="318" text-anchor="middle" font-size="11" font-weight="700" fill="#e8daef">ILessonDAO</text>
  <line x1="570" y1="316" x2="725" y2="316" stroke="#d2b4de" stroke-width="0.8"/>
  <text x="580" y="330" font-size="10" fill="#4a235a">+ addLesson(Lesson)</text>
  <text x="580" y="344" font-size="10" fill="#4a235a">+ getLessonsByCourse(int)</text>
  <text x="580" y="358" font-size="10" fill="#4a235a">+ deleteLesson(int)</text>

  <!-- IEnrollmentDAO -->
  <rect x="740" y="288" width="175" height="82" rx="8" fill="#f5eef8" stroke="#7d3c98" stroke-width="1.5"/>
  <rect x="740" y="288" width="175" height="28" rx="8" fill="#7d3c98"/>
  <rect x="740" y="304" width="175" height="12" fill="#7d3c98"/>
  <text x="827" y="305" text-anchor="middle" font-size="11" font-weight="700" fill="#fff">«interface»</text>
  <text x="827" y="318" text-anchor="middle" font-size="11" font-weight="700" fill="#e8daef">IEnrollmentDAO</text>
  <line x1="740" y1="316" x2="915" y2="316" stroke="#d2b4de" stroke-width="0.8"/>
  <text x="750" y="330" font-size="10" fill="#4a235a">+ enrollStudent(Enrollment)</text>
  <text x="750" y="344" font-size="10" fill="#4a235a">+ getEnrollmentsByStudent(int)</text>
  <text x="750" y="358" font-size="10" fill="#4a235a">+ isEnrolled(int, int)</text>

  <!-- IProgressDAO -->
  <rect x="930" y="288" width="175" height="82" rx="8" fill="#f5eef8" stroke="#7d3c98" stroke-width="1.5"/>
  <rect x="930" y="288" width="175" height="28" rx="8" fill="#7d3c98"/>
  <rect x="930" y="304" width="175" height="12" fill="#7d3c98"/>
  <text x="1017" y="305" text-anchor="middle" font-size="11" font-weight="700" fill="#fff">«interface»</text>
  <text x="1017" y="318" text-anchor="middle" font-size="11" font-weight="700" fill="#e8daef">IProgressDAO</text>
  <line x1="930" y1="316" x2="1105" y2="316" stroke="#d2b4de" stroke-width="0.8"/>
  <text x="940" y="330" font-size="10" fill="#4a235a">+ markComplete(Progress)</text>
  <text x="940" y="344" font-size="10" fill="#4a235a">+ getProgressByStudent(int)</text>
  <text x="940" y="358" font-size="10" fill="#4a235a">+ getProgressByCourse(int,int)</text>

  <!-- ==================== DAO LAYER ==================== -->
  <!-- StudentDAO -->
  <rect x="40" y="508" width="155" height="110" rx="8" fill="#e8f8f5" stroke="#1e8449" stroke-width="1.5"/>
  <rect x="40" y="508" width="155" height="28" rx="8" fill="#1e8449"/>
  <rect x="40" y="524" width="155" height="12" fill="#1e8449"/>
  <text x="117" y="525" text-anchor="middle" font-size="12" font-weight="700" fill="#fff">StudentDAO</text>
  <text x="117" y="537" text-anchor="middle" font-size="9" fill="#a9dfbf">implements IStudentDAO</text>
  <line x1="40" y1="536" x2="195" y2="536" stroke="#a9dfbf" stroke-width="0.8"/>
  <text x="50" y="550" font-size="10" fill="#145a32">+ registerStudent(Student)</text>
  <text x="50" y="564" font-size="10" fill="#145a32">+ getStudentByEmail(String)</text>
  <text x="50" y="578" font-size="10" fill="#145a32">+ getStudentById(int)</text>
  <text x="50" y="592" font-size="10" fill="#145a32">+ updateStudent(Student)</text>
  <text x="50" y="606" font-size="10" fill="#145a32">+ deleteStudent(int)</text>

  <!-- InstructorDAO -->
  <rect x="210" y="508" width="165" height="97" rx="8" fill="#e8f8f5" stroke="#1e8449" stroke-width="1.5"/>
  <rect x="210" y="508" width="165" height="28" rx="8" fill="#1e8449"/>
  <rect x="210" y="524" width="165" height="12" fill="#1e8449"/>
  <text x="292" y="525" text-anchor="middle" font-size="12" font-weight="700" fill="#fff">InstructorDAO</text>
  <text x="292" y="537" text-anchor="middle" font-size="9" fill="#a9dfbf">implements IInstructorDAO</text>
  <line x1="210" y1="536" x2="375" y2="536" stroke="#a9dfbf" stroke-width="0.8"/>
  <text x="220" y="550" font-size="10" fill="#145a32">+ registerInstructor(Instructor)</text>
  <text x="220" y="564" font-size="10" fill="#145a32">+ getInstructorByEmail(String)</text>
  <text x="220" y="578" font-size="10" fill="#145a32">+ getInstructorById(int)</text>
  <text x="220" y="592" font-size="10" fill="#145a32">+ updateInstructor(Instructor)</text>

  <!-- CourseDAO -->
  <rect x="390" y="508" width="165" height="110" rx="8" fill="#e8f8f5" stroke="#1e8449" stroke-width="1.5"/>
  <rect x="390" y="508" width="165" height="28" rx="8" fill="#1e8449"/>
  <rect x="390" y="524" width="165" height="12" fill="#1e8449"/>
  <text x="472" y="525" text-anchor="middle" font-size="12" font-weight="700" fill="#fff">CourseDAO</text>
  <text x="472" y="537" text-anchor="middle" font-size="9" fill="#a9dfbf">implements ICourseDAO</text>
  <line x1="390" y1="536" x2="555" y2="536" stroke="#a9dfbf" stroke-width="0.8"/>
  <text x="400" y="550" font-size="10" fill="#145a32">+ createCourse(Course)</text>
  <text x="400" y="564" font-size="10" fill="#145a32">+ getAllCourses()</text>
  <text x="400" y="578" font-size="10" fill="#145a32">+ getCourseById(int)</text>
  <text x="400" y="592" font-size="10" fill="#145a32">+ getCoursesByInstructor(int)</text>
  <text x="400" y="606" font-size="10" fill="#145a32">+ deleteCourse(int)</text>

  <!-- LessonDAO -->
  <rect x="570" y="508" width="155" height="97" rx="8" fill="#e8f8f5" stroke="#1e8449" stroke-width="1.5"/>
  <rect x="570" y="508" width="155" height="28" rx="8" fill="#1e8449"/>
  <rect x="570" y="524" width="155" height="12" fill="#1e8449"/>
  <text x="647" y="525" text-anchor="middle" font-size="12" font-weight="700" fill="#fff">LessonDAO</text>
  <text x="647" y="537" text-anchor="middle" font-size="9" fill="#a9dfbf">implements ILessonDAO</text>
  <line x1="570" y1="536" x2="725" y2="536" stroke="#a9dfbf" stroke-width="0.8"/>
  <text x="580" y="550" font-size="10" fill="#145a32">+ addLesson(Lesson)</text>
  <text x="580" y="564" font-size="10" fill="#145a32">+ getLessonsByCourse(int)</text>
  <text x="580" y="578" font-size="10" fill="#145a32">+ deleteLesson(int)</text>

  <!-- EnrollmentDAO -->
  <rect x="740" y="508" width="175" height="97" rx="8" fill="#e8f8f5" stroke="#1e8449" stroke-width="1.5"/>
  <rect x="740" y="508" width="175" height="28" rx="8" fill="#1e8449"/>
  <rect x="740" y="524" width="175" height="12" fill="#1e8449"/>
  <text x="827" y="525" text-anchor="middle" font-size="12" font-weight="700" fill="#fff">EnrollmentDAO</text>
  <text x="827" y="537" text-anchor="middle" font-size="9" fill="#a9dfbf">implements IEnrollmentDAO</text>
  <line x1="740" y1="536" x2="915" y2="536" stroke="#a9dfbf" stroke-width="0.8"/>
  <text x="750" y="550" font-size="10" fill="#145a32">+ enrollStudent(Enrollment)</text>
  <text x="750" y="564" font-size="10" fill="#145a32">+ getEnrollmentsByStudent(int)</text>
  <text x="750" y="578" font-size="10" fill="#145a32">+ isEnrolled(int, int)</text>

  <!-- ProgressDAO -->
  <rect x="930" y="508" width="175" height="97" rx="8" fill="#e8f8f5" stroke="#1e8449" stroke-width="1.5"/>
  <rect x="930" y="508" width="175" height="28" rx="8" fill="#1e8449"/>
  <rect x="930" y="524" width="175" height="12" fill="#1e8449"/>
  <text x="1017" y="525" text-anchor="middle" font-size="12" font-weight="700" fill="#fff">ProgressDAO</text>
  <text x="1017" y="537" text-anchor="middle" font-size="9" fill="#a9dfbf">implements IProgressDAO</text>
  <line x1="930" y1="536" x2="1105" y2="536" stroke="#a9dfbf" stroke-width="0.8"/>
  <text x="940" y="550" font-size="10" fill="#145a32">+ markComplete(Progress)</text>
  <text x="940" y="564" font-size="10" fill="#145a32">+ getProgressByStudent(int)</text>
  <text x="940" y="578" font-size="10" fill="#145a32">+ getProgressByCourse(int,int)</text>

  <!-- ==================== SERVLET LAYER ==================== -->
  <!-- LoginServlet -->
  <rect x="40" y="728" width="155" height="110" rx="8" fill="#fdf2e9" stroke="#ca6f1e" stroke-width="1.5"/>
  <rect x="40" y="728" width="155" height="28" rx="8" fill="#ca6f1e"/>
  <rect x="40" y="744" width="155" height="12" fill="#ca6f1e"/>
  <text x="117" y="745" text-anchor="middle" font-size="12" font-weight="700" fill="#fff">LoginServlet</text>
  <text x="117" y="757" text-anchor="middle" font-size="9" fill="#fae5d3">/login</text>
  <line x1="40" y1="756" x2="195" y2="756" stroke="#f0b27a" stroke-width="0.8"/>
  <text x="50" y="770" font-size="10" fill="#784212">+ doGet(req, res)</text>
  <text x="50" y="784" font-size="10" fill="#784212">+ doPost(req, res)</text>
  <text x="50" y="798" font-size="10" fill="#784212">- validateCredentials()</text>
  <text x="50" y="812" font-size="10" fill="#784212">- setSessionAttributes()</text>
  <text x="50" y="826" font-size="10" fill="#784212">- redirectOnSuccess()</text>

  <!-- LogoutServlet -->
  <rect x="210" y="728" width="155" height="83" rx="8" fill="#fdf2e9" stroke="#ca6f1e" stroke-width="1.5"/>
  <rect x="210" y="728" width="155" height="28" rx="8" fill="#ca6f1e"/>
  <rect x="210" y="744" width="155" height="12" fill="#ca6f1e"/>
  <text x="287" y="745" text-anchor="middle" font-size="12" font-weight="700" fill="#fff">LogoutServlet</text>
  <text x="287" y="757" text-anchor="middle" font-size="9" fill="#fae5d3">/logout</text>
  <line x1="210" y1="756" x2="365" y2="756" stroke="#f0b27a" stroke-width="0.8"/>
  <text x="220" y="770" font-size="10" fill="#784212">+ doGet(req, res)</text>
  <text x="220" y="784" font-size="10" fill="#784212">- invalidateSession()</text>
  <text x="220" y="798" font-size="10" fill="#784212">- redirectToLogin()</text>

  <!-- RegisterServlet -->
  <rect x="380" y="728" width="160" height="97" rx="8" fill="#fdf2e9" stroke="#ca6f1e" stroke-width="1.5"/>
  <rect x="380" y="728" width="160" height="28" rx="8" fill="#ca6f1e"/>
  <rect x="380" y="744" width="160" height="12" fill="#ca6f1e"/>
  <text x="460" y="745" text-anchor="middle" font-size="12" font-weight="700" fill="#fff">RegisterServlet</text>
  <text x="460" y="757" text-anchor="middle" font-size="9" fill="#fae5d3">/register</text>
  <line x1="380" y1="756" x2="540" y2="756" stroke="#f0b27a" stroke-width="0.8"/>
  <text x="390" y="770" font-size="10" fill="#784212">+ doGet(req, res)</text>
  <text x="390" y="784" font-size="10" fill="#784212">+ doPost(req, res)</text>
  <text x="390" y="798" font-size="10" fill="#784212">- validateInput()</text>
  <text x="390" y="812" font-size="10" fill="#784212">- hashPassword()</text>

  <!-- CourseServlet -->
  <rect x="555" y="728" width="155" height="97" rx="8" fill="#fdf2e9" stroke="#ca6f1e" stroke-width="1.5"/>
  <rect x="555" y="728" width="155" height="28" rx="8" fill="#ca6f1e"/>
  <rect x="555" y="744" width="155" height="12" fill="#ca6f1e"/>
  <text x="632" y="745" text-anchor="middle" font-size="12" font-weight="700" fill="#fff">CourseServlet</text>
  <text x="632" y="757" text-anchor="middle" font-size="9" fill="#fae5d3">/courses</text>
  <line x1="555" y1="756" x2="710" y2="756" stroke="#f0b27a" stroke-width="0.8"/>
  <text x="565" y="770" font-size="10" fill="#784212">+ doGet(req, res)</text>
  <text x="565" y="784" font-size="10" fill="#784212">+ doPost(req, res)</text>
  <text x="565" y="798" font-size="10" fill="#784212">- listCourses()</text>
  <text x="565" y="812" font-size="10" fill="#784212">- createCourse()</text>

  <!-- EnrollServlet -->
  <rect x="725" y="728" width="155" height="97" rx="8" fill="#fdf2e9" stroke="#ca6f1e" stroke-width="1.5"/>
  <rect x="725" y="728" width="155" height="28" rx="8" fill="#ca6f1e"/>
  <rect x="725" y="744" width="155" height="12" fill="#ca6f1e"/>
  <text x="802" y="745" text-anchor="middle" font-size="12" font-weight="700" fill="#fff">EnrollServlet</text>
  <text x="802" y="757" text-anchor="middle" font-size="9" fill="#fae5d3">/enroll</text>
  <line x1="725" y1="756" x2="880" y2="756" stroke="#f0b27a" stroke-width="0.8"/>
  <text x="735" y="770" font-size="10" fill="#784212">+ doPost(req, res)</text>
  <text x="735" y="784" font-size="10" fill="#784212">- checkAlreadyEnrolled()</text>
  <text x="735" y="798" font-size="10" fill="#784212">- redirectToDashboard()</text>

  <!-- LessonServlet -->
  <rect x="895" y="728" width="155" height="97" rx="8" fill="#fdf2e9" stroke="#ca6f1e" stroke-width="1.5"/>
  <rect x="895" y="728" width="155" height="28" rx="8" fill="#ca6f1e"/>
  <rect x="895" y="744" width="155" height="12" fill="#ca6f1e"/>
  <text x="972" y="745" text-anchor="middle" font-size="12" font-weight="700" fill="#fff">LessonServlet</text>
  <text x="972" y="757" text-anchor="middle" font-size="9" fill="#fae5d3">/lessons</text>
  <line x1="895" y1="756" x2="1050" y2="756" stroke="#f0b27a" stroke-width="0.8"/>
  <text x="905" y="770" font-size="10" fill="#784212">+ doGet(req, res)</text>
  <text x="905" y="784" font-size="10" fill="#784212">- getLessonsByCourse()</text>
  <text x="905" y="798" font-size="10" fill="#784212">- forwardToJSP()</text>

  <!-- ProgressServlet -->
  <rect x="40" y="850" width="155" height="97" rx="8" fill="#fdf2e9" stroke="#ca6f1e" stroke-width="1.5"/>
  <rect x="40" y="850" width="155" height="28" rx="8" fill="#ca6f1e"/>
  <rect x="40" y="866" width="155" height="12" fill="#ca6f1e"/>
  <text x="117" y="867" text-anchor="middle" font-size="12" font-weight="700" fill="#fff">ProgressServlet</text>
  <text x="117" y="879" text-anchor="middle" font-size="9" fill="#fae5d3">/progress</text>
  <line x1="40" y1="878" x2="195" y2="878" stroke="#f0b27a" stroke-width="0.8"/>
  <text x="50" y="892" font-size="10" fill="#784212">+ doPost(req, res)</text>
  <text x="50" y="906" font-size="10" fill="#784212">- markLessonComplete()</text>
  <text x="50" y="920" font-size="10" fill="#784212">- redirectToLessons()</text>

  <!-- DashboardServlet -->
  <rect x="210" y="850" width="160" height="97" rx="8" fill="#fdf2e9" stroke="#ca6f1e" stroke-width="1.5"/>
  <rect x="210" y="850" width="160" height="28" rx="8" fill="#ca6f1e"/>
  <rect x="210" y="866" width="160" height="12" fill="#ca6f1e"/>
  <text x="290" y="867" text-anchor="middle" font-size="12" font-weight="700" fill="#fff">DashboardServlet</text>
  <text x="290" y="879" text-anchor="middle" font-size="9" fill="#fae5d3">/dashboard</text>
  <line x1="210" y1="878" x2="370" y2="878" stroke="#f0b27a" stroke-width="0.8"/>
  <text x="220" y="892" font-size="10" fill="#784212">+ doGet(req, res)</text>
  <text x="220" y="906" font-size="10" fill="#784212">- loadEnrollments()</text>
  <text x="220" y="920" font-size="10" fill="#784212">- loadProgress()</text>

  <!-- AdminServlet -->
  <rect x="385" y="850" width="155" height="97" rx="8" fill="#fdf2e9" stroke="#ca6f1e" stroke-width="1.5"/>
  <rect x="385" y="850" width="155" height="28" rx="8" fill="#ca6f1e"/>
  <rect x="385" y="866" width="155" height="12" fill="#ca6f1e"/>
  <text x="462" y="867" text-anchor="middle" font-size="12" font-weight="700" fill="#fff">AdminServlet</text>
  <text x="462" y="879" text-anchor="middle" font-size="9" fill="#fae5d3">/admin</text>
  <line x1="385" y1="878" x2="540" y2="878" stroke="#f0b27a" stroke-width="0.8"/>
  <text x="395" y="892" font-size="10" fill="#784212">+ doGet(req, res)</text>
  <text x="395" y="906" font-size="10" fill="#784212">- listAllUsers()</text>
  <text x="395" y="920" font-size="10" fill="#784212">- listAllCourses()</text>

  <!-- ==================== UTILITY LAYER ==================== -->
  <!-- DBConnectionPool -->
  <rect x="40" y="958" width="230" height="110" rx="8" fill="#fef9e7" stroke="#b7950b" stroke-width="1.5"/>
  <rect x="40" y="958" width="230" height="28" rx="8" fill="#b7950b"/>
  <rect x="40" y="974" width="230" height="12" fill="#b7950b"/>
  <text x="155" y="975" text-anchor="middle" font-size="12" font-weight="700" fill="#fff">DBConnectionPool</text>
  <text x="155" y="987" text-anchor="middle" font-size="9" fill="#f9e79f">«singleton» HikariCP</text>
  <line x1="40" y1="986" x2="270" y2="986" stroke="#f9e79f" stroke-width="0.8"/>
  <text x="50" y="1000" font-size="10" fill="#7d6608">- dataSource : HikariDataSource</text>
  <line x1="40" y1="1006" x2="270" y2="1006" stroke="#f9e79f" stroke-width="0.8"/>
  <text x="50" y="1020" font-size="10" fill="#9a7d0a">+ getInstance()</text>
  <text x="50" y="1034" font-size="10" fill="#9a7d0a">+ getConnection() : Connection</text>
  <text x="50" y="1048" font-size="10" fill="#9a7d0a">+ closeConnection(con)</text>
  <text x="50" y="1062" font-size="10" fill="#9a7d0a">+ shutdown()</text>

  <!-- application.properties -->
  <rect x="290" y="958" width="210" height="110" rx="8" fill="#fef9e7" stroke="#b7950b" stroke-width="1.5" stroke-dasharray="6,3"/>
  <rect x="290" y="958" width="210" height="28" rx="8" fill="#d4ac0d"/>
  <rect x="290" y="974" width="210" height="12" fill="#d4ac0d"/>
  <text x="395" y="975" text-anchor="middle" font-size="12" font-weight="700" fill="#fff">application.properties</text>
  <text x="395" y="987" text-anchor="middle" font-size="9" fill="#fef9e7">«config file»</text>
  <line x1="290" y1="986" x2="500" y2="986" stroke="#f9e79f" stroke-width="0.8"/>
  <text x="300" y="1000" font-size="10" fill="#7d6608">db.mysql.url</text>
  <text x="300" y="1014" font-size="10" fill="#7d6608">db.mysql.username / password</text>
  <text x="300" y="1028" font-size="10" fill="#7d6608">db.oracle.url</text>
  <text x="300" y="1042" font-size="10" fill="#7d6608">db.oracle.username / password</text>
  <text x="300" y="1056" font-size="10" fill="#7d6608">db.pool.maximumPoolSize</text>

  <!-- schema files -->
  <rect x="520" y="958" width="200" height="110" rx="8" fill="#fef9e7" stroke="#b7950b" stroke-width="1.5" stroke-dasharray="6,3"/>
  <rect x="520" y="958" width="200" height="28" rx="8" fill="#d4ac0d"/>
  <rect x="520" y="974" width="200" height="12" fill="#d4ac0d"/>
  <text x="620" y="975" text-anchor="middle" font-size="12" font-weight="700" fill="#fff">SQL Schema Files</text>
  <text x="620" y="987" text-anchor="middle" font-size="9" fill="#fef9e7">«resource files»</text>
  <line x1="520" y1="986" x2="720" y2="986" stroke="#f9e79f" stroke-width="0.8"/>
  <text x="530" y="1000" font-size="10" fill="#7d6608">schema-mysql.sql</text>
  <text x="530" y="1016" font-size="10" fill="#9a7d0a">  AUTO_INCREMENT, TINYINT</text>
  <text x="530" y="1032" font-size="10" fill="#7d6608">schema-oracle.sql</text>
  <text x="530" y="1048" font-size="10" fill="#9a7d0a">  SEQUENCE + TRIGGER, NUMBER(1)</text>

  <!-- ==================== IMPLEMENT ARROWS: Interface → DAO ==================== -->
  <line x1="117" y1="383" x2="117" y2="508" stroke="#7d3c98" stroke-width="1" stroke-dasharray="4,3"/>
  <polygon points="112,504 117,516 122,504" fill="none" stroke="#7d3c98" stroke-width="1"/>

  <line x1="292" y1="383" x2="292" y2="508" stroke="#7d3c98" stroke-width="1" stroke-dasharray="4,3"/>
  <polygon points="287,504 292,516 297,504" fill="none" stroke="#7d3c98" stroke-width="1"/>

  <line x1="472" y1="383" x2="472" y2="508" stroke="#7d3c98" stroke-width="1" stroke-dasharray="4,3"/>
  <polygon points="467,504 472,516 477,504" fill="none" stroke="#7d3c98" stroke-width="1"/>

  <line x1="647" y1="370" x2="647" y2="508" stroke="#7d3c98" stroke-width="1" stroke-dasharray="4,3"/>
  <polygon points="642,504 647,516 652,504" fill="none" stroke="#7d3c98" stroke-width="1"/>

  <line x1="827" y1="370" x2="827" y2="508" stroke="#7d3c98" stroke-width="1" stroke-dasharray="4,3"/>
  <polygon points="822,504 827,516 832,504" fill="none" stroke="#7d3c98" stroke-width="1"/>

  <line x1="1017" y1="370" x2="1017" y2="508" stroke="#7d3c98" stroke-width="1" stroke-dasharray="4,3"/>
  <polygon points="1012,504 1017,516 1022,504" fill="none" stroke="#7d3c98" stroke-width="1"/>

  <!-- ==================== DAO → DBConnectionPool ==================== -->
  <line x1="117" y1="618" x2="117" y2="958" stroke="#b7950b" stroke-width="1" stroke-dasharray="3,3"/>
  <line x1="292" y1="605" x2="155" y2="958" stroke="#b7950b" stroke-width="1" stroke-dasharray="3,3"/>
  <text x="320" y="800" font-size="9" fill="#b7950b" font-style="italic">getConnection()</text>

  <!-- ==================== LEGEND ==================== -->
  <rect x="740" y="958" width="640" height="128" rx="6" fill="#f0f0f0" stroke="#cccccc" stroke-width="1"/>
  <text x="760" y="978" font-size="12" font-weight="700" fill="#333">Legend</text>
  <rect x="760" y="986" width="12" height="12" rx="2" fill="#eaf4fb" stroke="#2980b9" stroke-width="1.5"/>
  <text x="778" y="997" font-size="10" fill="#333">Model class</text>
  <rect x="860" y="986" width="12" height="12" rx="2" fill="#f5eef8" stroke="#7d3c98" stroke-width="1.5"/>
  <text x="878" y="997" font-size="10" fill="#333">DAO Interface</text>
  <rect x="970" y="986" width="12" height="12" rx="2" fill="#e8f8f5" stroke="#1e8449" stroke-width="1.5"/>
  <text x="988" y="997" font-size="10" fill="#333">DAO class</text>
  <rect x="1060" y="986" width="12" height="12" rx="2" fill="#fdf2e9" stroke="#ca6f1e" stroke-width="1.5"/>
  <text x="1078" y="997" font-size="10" fill="#333">Servlet class</text>
  <rect x="1160" y="986" width="12" height="12" rx="2" fill="#fef9e7" stroke="#b7950b" stroke-width="1.5"/>
  <text x="1178" y="997" font-size="10" fill="#333">Utility / Config</text>

  <line x1="760" y1="1015" x2="800" y2="1015" stroke="#7d3c98" stroke-width="1" stroke-dasharray="4,3"/>
  <polygon points="796,1011 804,1015 796,1019" fill="none" stroke="#7d3c98" stroke-width="1"/>
  <text x="810" y="1019" font-size="10" fill="#333">«implements» interface</text>

  <line x1="760" y1="1035" x2="800" y2="1035" stroke="#999" stroke-width="1.2" stroke-dasharray="5,3"/>
  <polygon points="798,1031 806,1035 798,1039" fill="#999"/>
  <text x="810" y="1039" font-size="10" fill="#333">uses (dependency)</text>

  <line x1="760" y1="1055" x2="800" y2="1055" stroke="#b7950b" stroke-width="1" stroke-dasharray="3,3"/>
  <text x="810" y="1059" font-size="10" fill="#333">getConnection()</text>

  <text x="760" y="1078" font-size="10" fill="#888">-  private     +  public     «stereotype» = role label     dashed border = config/resource file</text>

</svg>
